# xmcd
#
# Track frame offsets:
#	182
#	19770
#	33985
#	51537
#	63730
#	77180
#	95750
#	111365
#	132435
#	152140
#	171172
#
# Disc length: 2548 seconds
#
# Revision: 5
# Processed by: cddbd v1.5.2PL0 Copyright (c) Steve Scherf et al.
# Submitted via: audiograbber 1.83.01
#
DISCID=9d09f20b
DTITLE=Deborah Allen - Delta Dreamland
DYEAR=1995
DGENRE=Oldies
TTITLE0=Delta Dreamland
TTITLE1=Long Time Lovin' You
TTITLE2=All The Loving And The Hurting Too
TTITLE3=Emotional Moon
TTITLE4=Two Shades Of Blue
TTITLE5=Rock Me (In The Cradle Of Love)
TTITLE6=Chain Lightning
TTITLE7=If You're Not Gonna Love Me
TTITLE8=Undeniable
TTITLE9=Into My Life
TTITLE10=Rock Me  (Dance Mix)
EXTD=\n\n\n\n\n\n\n\n\n\nGLR
EXTT0=
EXTT1=
EXTT2=
EXTT3=
EXTT4=
EXTT5=
EXTT6=
EXTT7=
EXTT8=
EXTT9=
EXTT10=
PLAYORDER=
